<svg version="1.1" id="Layer_1" xmlns="http://www.w3.org/2000/svg" xmlns:xlink="http://www.w3.org/1999/xlink" x="0px" y="0px"
	 width="100%" viewBox="0 0 1116 906" enable-background="new 0 0 1116 906" xml:space="preserve">
<path fill="#000000" opacity="1.000000" stroke="none" 
	d="
M1111.000000,907.000000 
	C741.000000,907.000000 371.000000,907.000000 1.000000,907.000000 
	C1.000000,862.556091 1.000000,818.237732 1.331389,773.389648 
	C5.897917,768.947327 10.190816,765.095215 14.356487,761.110168 
	C23.819935,752.057190 33.220562,742.938599 42.647251,733.847168 
	C51.954086,724.871399 61.263935,715.898682 70.568352,706.920410 
	C80.232315,697.595093 89.888725,688.261963 99.553337,678.937317 
	C108.978180,669.843933 118.409554,660.757324 127.837357,651.666992 
	C137.025375,642.807861 146.212708,633.947998 155.400116,625.088257 
	C164.827255,615.997314 174.254105,606.906067 183.681168,597.815002 
	C192.988373,588.839600 202.295685,579.864319 211.602966,570.888916 
	C220.910217,561.913574 230.217026,552.937744 239.524887,543.962952 
	C248.952652,534.872559 258.381531,525.783386 267.809662,516.693298 
	C276.997894,507.834442 286.186401,498.975830 295.373840,490.116119 
	C304.800964,481.025146 314.226593,471.932617 323.653381,462.841278 
	C332.960297,453.865540 342.267853,444.890442 351.575134,435.915100 
	C360.882416,426.939758 370.189240,417.963898 379.497070,408.989136 
	C388.924835,399.898773 398.353638,390.809448 407.781982,381.719696 
	C416.970612,372.861176 426.198212,364.042633 435.339172,355.135223 
	C451.041199,339.834290 466.688324,324.477081 482.361389,309.146423 
	C483.519348,308.013763 484.700470,306.904785 486.231537,305.439636 
	C500.350830,319.089783 514.236816,332.514435 527.978027,346.247009 
	C514.965454,358.796326 502.055908,370.994019 489.242676,383.292145 
	C477.848511,394.228210 466.557343,405.271606 455.227570,416.274750 
	C443.300354,427.858185 431.381439,439.450195 419.458344,451.037842 
	C418.980560,451.502167 418.498932,451.962555 418.015533,452.421051 
	C405.490448,464.300079 392.916016,476.128448 380.551392,488.172241 
	C379.743500,488.959167 379.840515,492.120758 380.701538,492.955444 
	C391.301544,503.231140 402.140625,513.259766 412.879944,523.392395 
	C420.005737,530.115723 427.090637,536.882751 434.158478,543.666992 
	C451.418335,560.234436 468.698853,576.780762 485.892395,593.416870 
	C500.115540,607.178833 514.183716,621.101074 528.407471,634.862305 
	C534.125427,640.394409 540.075500,645.686523 546.086304,651.373535 
	C558.782410,663.553406 571.344910,675.413086 583.833679,687.349976 
	C600.418213,703.201660 616.987061,719.070251 633.484131,735.012817 
	C647.244446,748.310669 660.873596,761.744080 674.595093,775.082275 
	C684.253906,784.471436 693.919067,793.855347 703.689026,803.128235 
	C707.005615,806.276123 710.651489,809.077148 714.292847,812.160339 
	C725.793518,801.351135 737.107788,790.847839 748.275269,780.190735 
	C765.475037,763.777100 782.619019,747.304443 799.702271,730.769531 
	C814.290405,716.649719 828.709778,702.355469 843.303650,688.241699 
	C850.102966,681.666077 857.138916,675.335083 864.381104,669.025024 
	C867.627686,672.097168 870.513977,675.085938 873.501953,677.969421 
	C888.360596,692.308228 903.245972,706.619385 917.977417,721.249634 
	C906.931702,732.162842 896.054382,742.791382 885.112732,753.353333 
	C882.393555,755.978088 879.288879,758.216980 876.677612,760.936829 
	C872.944336,764.825256 869.502075,768.992981 866.090332,773.336609 
	C873.075073,780.166382 879.912598,786.693176 886.733582,793.237244 
	C903.378174,809.205994 920.059021,825.137207 936.641418,841.170288 
	C950.731995,854.794189 964.683350,868.562012 978.753479,882.207275 
	C980.969543,884.356384 983.488831,886.192993 985.861084,888.168396 
	C1004.005615,870.876892 1021.771301,853.946411 1039.777222,837.272217 
	C1045.192749,842.370789 1050.444092,847.134644 1055.528931,852.070068 
	C1069.918091,866.036743 1084.225098,880.088013 1098.605591,894.063721 
	C1100.230591,895.643127 1102.306030,896.778198 1103.839111,898.428955 
	C1106.369141,901.153076 1108.627319,904.129761 1111.000000,907.000000 
z"/>
<path fill="#000000" opacity="1.000000" stroke="none" 
	d="
M1.000006,767.000000 
	C1.000000,511.751282 1.000000,256.502533 1.000000,1.000000 
	C167.360107,1.000000 333.720367,1.000000 500.827332,1.287112 
	C499.877014,3.060857 498.102295,4.468326 496.494751,6.046119 
	C476.231567,25.933996 456.019928,45.874432 435.735138,65.740189 
	C426.388855,74.893372 416.943115,83.945930 407.469391,92.967323 
	C405.320160,95.013893 405.778412,96.483902 407.739258,98.273926 
	C412.977722,103.056053 418.177124,107.884666 423.277771,112.813042 
	C428.183441,117.553062 432.880798,122.508621 437.783661,127.251656 
	C452.867493,141.843933 468.005951,156.379822 482.978943,171.246002 
	C477.514435,177.034592 472.194214,182.514771 466.669128,188.183960 
	C471.187469,192.959320 475.921051,197.534988 480.631866,202.133987 
	C495.142578,216.300232 509.597504,230.524002 524.167053,244.629440 
	C533.344116,253.514206 542.687683,262.227020 552.750977,271.770355 
	C540.922791,283.518677 529.529846,294.834717 516.717407,307.560730 
	C525.595764,315.786469 534.371033,323.916687 542.972046,332.341675 
	C538.844788,336.131958 534.891785,339.627441 530.625427,342.987122 
	C515.671082,328.963013 501.030121,315.074677 486.528809,301.318817 
	C483.949554,303.459045 481.165955,305.511261 478.680664,307.876862 
	C469.195221,316.905396 459.806366,326.035431 450.380493,335.126556 
	C441.074432,344.102081 431.767181,353.076324 422.460419,362.051117 
	C413.153656,371.025909 403.845062,379.998779 394.540619,388.975983 
	C384.756714,398.415741 374.978912,407.861786 365.194702,417.301208 
	C356.009735,426.162476 346.819489,435.018158 337.632294,443.877106 
	C328.085541,453.082794 318.541138,462.290985 308.993134,471.495422 
	C299.924591,480.237579 290.850464,488.973907 281.783203,497.717346 
	C272.236603,506.923126 262.696259,516.135437 253.151306,525.342896 
	C243.965836,534.203552 234.777939,543.061707 225.591110,551.920959 
	C216.164505,561.011353 206.737900,570.101807 197.311310,579.192200 
	C188.004578,588.167053 178.697845,597.141907 169.391159,606.116699 
	C160.084442,615.091553 150.778214,624.066833 141.470901,633.041077 
	C132.043732,642.130920 122.615280,651.219482 113.187782,660.308960 
	C104.000015,669.167297 94.812347,678.025757 85.625259,686.884705 
	C76.078529,696.090454 66.486702,705.250061 56.996418,714.513550 
	C40.235725,730.873779 23.568113,747.329590 6.760564,763.641296 
	C5.212180,765.144043 2.937468,765.898254 1.000006,767.000000 
z"/>
<path fill="#000000" opacity="1.000000" stroke="none" 
	d="
M506.000000,0.999997 
	C709.610718,1.000000 913.221436,1.000000 1117.000000,1.000000 
	C1117.000000,302.028015 1117.000000,603.056030 1116.717285,904.828125 
	C1113.792480,903.379028 1110.994873,901.346680 1108.534058,898.966187 
	C1094.823364,885.703125 1081.227905,872.320984 1067.524902,859.049988 
	C1059.087646,850.878845 1050.528564,842.833374 1042.203369,834.467896 
	C1054.387329,822.504028 1066.397095,810.808716 1078.395630,799.101868 
	C1087.291870,790.421875 1096.173706,781.726990 1105.268921,772.849365 
	C1098.424927,765.713684 1091.434448,758.704651 1084.310791,751.833679 
	C1067.712524,735.824097 1051.005127,719.927612 1034.427612,703.896729 
	C1020.219604,690.157349 1006.148193,676.276672 991.968140,662.508118 
	C989.988708,660.586182 987.733154,658.948730 985.712585,657.268677 
	C982.156189,660.303711 978.733826,662.926575 975.654114,665.903870 
	C961.802734,679.294250 948.091309,692.829468 934.234070,706.213684 
	C929.958008,710.343872 925.380005,714.161499 920.627808,717.987061 
	C916.675720,714.205872 913.093506,710.500183 909.386169,706.924194 
	C895.243591,693.282410 881.060608,679.682495 867.043335,665.756775 
	C872.155945,660.660706 877.117920,655.874878 882.372070,650.929321 
	C887.763611,646.026245 892.917542,641.340088 897.952209,636.529114 
	C914.161682,621.039551 930.358276,605.536194 946.499512,589.975586 
	C958.706360,578.207764 970.794495,566.316833 982.991211,554.538391 
	C987.161865,550.510925 991.565735,546.725586 995.753052,542.714722 
	C1012.906433,526.284302 1029.997192,509.788544 1047.168579,493.376923 
	C1049.369263,491.273499 1049.382568,489.646606 1047.145630,487.608582 
	C1041.874878,482.806580 1036.649170,477.951080 1031.524170,472.994232 
	C1018.857544,460.743378 1006.300171,448.379425 993.611816,436.151245 
	C987.883789,430.631073 981.948425,425.326019 976.211670,419.618744 
	C1014.289917,381.550293 1052.263672,343.786438 1090.298584,305.961823 
	C1088.981201,304.557648 1088.432251,303.939056 1087.848511,303.355286 
	C1041.801514,257.303070 995.752930,211.252350 949.693054,165.212997 
	C948.878662,164.398911 947.926147,163.723068 946.901733,162.677551 
	C899.148682,114.886696 851.531921,67.401016 803.233215,19.235243 
	C767.659546,54.810875 732.377747,90.094627 696.921753,125.552574 
	C669.563843,99.282402 642.113770,72.923775 614.260193,46.177681 
	C612.875305,47.268009 611.261230,48.336826 609.884399,49.653561 
	C593.429443,65.389778 576.988586,81.140884 560.588135,96.933830 
	C549.447144,107.662163 538.368713,118.455452 527.274963,129.232758 
	C514.985901,141.171234 502.730621,153.144516 490.401672,165.041626 
	C489.117798,166.280563 487.434967,167.106110 485.627014,167.989792 
	C480.145966,163.006256 474.910736,158.222961 469.817047,153.293411 
	C457.067749,140.954895 444.418488,128.512955 431.657745,116.186378 
	C424.488220,109.260811 417.176971,102.481956 409.675171,95.396713 
	C416.176453,89.393257 422.391541,83.942772 428.278015,78.157936 
	C440.384521,66.260521 452.315063,54.184029 464.318512,42.181755 
	C469.142975,37.357735 473.942230,32.508129 478.799683,27.717522 
	C487.848389,18.793367 496.931305,9.903906 506.000000,0.999997 
z"/>
<path fill="#FFFFFF" opacity="1.000000" stroke="none" 
	d="
M1.000006,767.428467 
	C2.937468,765.898254 5.212180,765.144043 6.760564,763.641296 
	C23.568113,747.329590 40.235725,730.873779 56.996418,714.513550 
	C66.486702,705.250061 76.078529,696.090454 85.625259,686.884705 
	C94.812347,678.025757 104.000015,669.167297 113.187782,660.308960 
	C122.615280,651.219482 132.043732,642.130920 141.470901,633.041077 
	C150.778214,624.066833 160.084442,615.091553 169.391159,606.116699 
	C178.697845,597.141907 188.004578,588.167053 197.311310,579.192200 
	C206.737900,570.101807 216.164505,561.011353 225.591110,551.920959 
	C234.777939,543.061707 243.965836,534.203552 253.151306,525.342896 
	C262.696259,516.135437 272.236603,506.923126 281.783203,497.717346 
	C290.850464,488.973907 299.924591,480.237579 308.993134,471.495422 
	C318.541138,462.290985 328.085541,453.082794 337.632294,443.877106 
	C346.819489,435.018158 356.009735,426.162476 365.194702,417.301208 
	C374.978912,407.861786 384.756714,398.415741 394.540619,388.975983 
	C403.845062,379.998779 413.153656,371.025909 422.460419,362.051117 
	C431.767181,353.076324 441.074432,344.102081 450.380493,335.126556 
	C459.806366,326.035431 469.195221,316.905396 478.680664,307.876862 
	C481.165955,305.511261 483.949554,303.459045 486.528809,301.318817 
	C501.030121,315.074677 515.671082,328.963013 530.634216,343.319519 
	C530.011841,344.504822 529.067322,345.221924 528.122864,345.939026 
	C514.236816,332.514435 500.350830,319.089783 486.231537,305.439636 
	C484.700470,306.904785 483.519348,308.013763 482.361389,309.146423 
	C466.688324,324.477081 451.041199,339.834290 435.339172,355.135223 
	C426.198212,364.042633 416.970612,372.861176 407.781982,381.719696 
	C398.353638,390.809448 388.924835,399.898773 379.497070,408.989136 
	C370.189240,417.963898 360.882416,426.939758 351.575134,435.915100 
	C342.267853,444.890442 332.960297,453.865540 323.653381,462.841278 
	C314.226593,471.932617 304.800964,481.025146 295.373840,490.116119 
	C286.186401,498.975830 276.997894,507.834442 267.809662,516.693298 
	C258.381531,525.783386 248.952652,534.872559 239.524887,543.962952 
	C230.217026,552.937744 220.910217,561.913574 211.602966,570.888916 
	C202.295685,579.864319 192.988373,588.839600 183.681168,597.815002 
	C174.254105,606.906067 164.827255,615.997314 155.400116,625.088257 
	C146.212708,633.947998 137.025375,642.807861 127.837357,651.666992 
	C118.409554,660.757324 108.978180,669.843933 99.553337,678.937317 
	C89.888725,688.261963 80.232315,697.595093 70.568352,706.920410 
	C61.263935,715.898682 51.954086,724.871399 42.647251,733.847168 
	C33.220562,742.938599 23.819935,752.057190 14.356487,761.110168 
	C10.190816,765.095215 5.897917,768.947327 1.331389,772.929932 
	C1.000000,771.285645 1.000000,769.571289 1.000006,767.428467 
z"/>
<path fill="#FFFFFF" opacity="1.000000" stroke="none" 
	d="
M505.583344,0.999997 
	C496.931305,9.903906 487.848389,18.793367 478.799683,27.717522 
	C473.942230,32.508129 469.142975,37.357735 464.318512,42.181755 
	C452.315063,54.184029 440.384521,66.260521 428.278015,78.157936 
	C422.391541,83.942772 416.176453,89.393257 409.675171,95.396713 
	C417.176971,102.481956 424.488220,109.260811 431.657745,116.186378 
	C444.418488,128.512955 457.067749,140.954895 469.817047,153.293411 
	C474.910736,158.222961 480.145966,163.006256 485.658691,168.335693 
	C485.041443,169.522705 484.082336,170.230164 483.123199,170.937607 
	C468.005951,156.379822 452.867493,141.843933 437.783661,127.251656 
	C432.880798,122.508621 428.183441,117.553062 423.277771,112.813042 
	C418.177124,107.884666 412.977722,103.056053 407.739258,98.273926 
	C405.778412,96.483902 405.320160,95.013893 407.469391,92.967323 
	C416.943115,83.945930 426.388855,74.893372 435.735138,65.740189 
	C456.019928,45.874432 476.231567,25.933996 496.494751,6.046119 
	C498.102295,4.468326 499.877014,3.060857 501.287018,1.287112 
	C502.388885,1.000000 503.777802,1.000000 505.583344,0.999997 
z"/>
<path fill="#FFFFFF" opacity="1.000000" stroke="none" 
	d="
M1042.024292,834.731445 
	C1050.528564,842.833374 1059.087646,850.878845 1067.524902,859.049988 
	C1081.227905,872.320984 1094.823364,885.703125 1108.534058,898.966187 
	C1110.994873,901.346680 1113.792480,903.379028 1116.717285,905.286011 
	C1116.725098,909.147827 1113.541748,906.022827 1111.499512,907.000000 
	C1108.627319,904.129761 1106.369141,901.153076 1103.839111,898.428955 
	C1102.306030,896.778198 1100.230591,895.643127 1098.605591,894.063721 
	C1084.225098,880.088013 1069.918091,866.036743 1055.528931,852.070068 
	C1050.444092,847.134644 1045.192749,842.370789 1039.754150,836.882812 
	C1040.335327,835.735229 1041.179810,835.233337 1042.024292,834.731445 
z"/>
<path fill="#832827" opacity="1.000000" stroke="none" 
	d="
M527.978027,346.247009 
	C529.067322,345.221924 530.011841,344.504822 530.947571,343.455322 
	C534.891785,339.627441 538.844788,336.131958 543.303345,332.368713 
	C545.323792,333.360229 546.949402,334.508606 548.337341,335.894928 
	C584.474304,371.990967 620.585022,408.113281 656.709412,444.221893 
	C658.068542,445.580414 659.519592,446.847015 661.240173,448.446930 
	C666.108459,443.329407 670.561768,438.648041 675.324829,434.094635 
	C718.247864,476.824585 760.861206,519.426575 804.327148,562.880981 
	C805.554871,561.200562 806.464722,559.543823 807.747314,558.259155 
	C847.638550,518.306030 887.564148,478.387238 927.497070,438.475739 
	C928.780273,437.193329 930.195557,436.043152 931.892822,434.950195 
	C935.696716,438.415680 939.388733,441.559418 942.550598,445.167633 
	C945.537231,448.575928 947.554688,448.124390 950.546814,445.060913 
	C958.894958,436.513794 967.564453,428.280487 976.107056,419.923340 
	C981.948425,425.326019 987.883789,430.631073 993.611816,436.151245 
	C1006.300171,448.379425 1018.857544,460.743378 1031.524170,472.994232 
	C1036.649170,477.951080 1041.874878,482.806580 1047.145630,487.608582 
	C1049.382568,489.646606 1049.369263,491.273499 1047.168579,493.376923 
	C1029.997192,509.788544 1012.906433,526.284302 995.753052,542.714722 
	C991.565735,546.725586 987.161865,550.510925 982.991211,554.538391 
	C970.794495,566.316833 958.706360,578.207764 946.499512,589.975586 
	C930.358276,605.536194 914.161682,621.039551 897.952209,636.529114 
	C892.917542,641.340088 887.763611,646.026245 882.066406,650.773193 
	C857.961548,628.560425 834.454590,606.344055 810.817749,584.005005 
	C808.254333,586.353149 805.865723,588.541199 802.860596,591.293884 
	C801.455627,589.545166 800.430237,587.996521 799.144043,586.708252 
	C770.200623,557.717224 741.218323,528.765076 712.282166,499.766846 
	C710.081421,497.561401 708.457642,495.998901 705.379944,498.991241 
	C691.797913,512.196716 677.975952,525.155090 664.280762,538.244629 
	C648.418579,553.405273 632.578552,568.589233 616.764526,583.800171 
	C597.590088,602.243347 578.482361,620.756226 559.276794,639.166931 
	C554.971558,643.293945 550.379822,647.122131 545.919922,651.087830 
	C540.075500,645.686523 534.125427,640.394409 528.407471,634.862305 
	C514.183716,621.101074 500.115540,607.178833 485.892395,593.416870 
	C468.698853,576.780762 451.418335,560.234436 434.158478,543.666992 
	C427.090637,536.882751 420.005737,530.115723 412.879944,523.392395 
	C402.140625,513.259766 391.301544,503.231140 380.701538,492.955444 
	C379.840515,492.120758 379.743500,488.959167 380.551392,488.172241 
	C392.916016,476.128448 405.490448,464.300079 418.015533,452.421051 
	C418.498932,451.962555 418.980560,451.502167 419.458344,451.037842 
	C431.381439,439.450195 443.300354,427.858185 455.227570,416.274750 
	C466.557343,405.271606 477.848511,394.228210 489.242676,383.292145 
	C502.055908,370.994019 514.965454,358.796326 527.978027,346.247009 
z"/>
<path fill="#650F12" opacity="1.000000" stroke="none" 
	d="
M546.086304,651.373535 
	C550.379822,647.122131 554.971558,643.293945 559.276794,639.166931 
	C578.482361,620.756226 597.590088,602.243347 616.764526,583.800171 
	C632.578552,568.589233 648.418579,553.405273 664.280762,538.244629 
	C677.975952,525.155090 691.797913,512.196716 705.379944,498.991241 
	C708.457642,495.998901 710.081421,497.561401 712.282166,499.766846 
	C741.218323,528.765076 770.200623,557.717224 799.144043,586.708252 
	C800.430237,587.996521 801.455627,589.545166 802.860596,591.293884 
	C805.865723,588.541199 808.254333,586.353149 810.817749,584.005005 
	C834.454590,606.344055 857.961548,628.560425 881.774231,650.932922 
	C877.117920,655.874878 872.155945,660.660706 866.725098,665.766113 
	C865.526733,667.021545 864.797119,667.957336 864.067566,668.893127 
	C857.138916,675.335083 850.102966,681.666077 843.303650,688.241699 
	C828.709778,702.355469 814.290405,716.649719 799.702271,730.769531 
	C782.619019,747.304443 765.475037,763.777100 748.275269,780.190735 
	C737.107788,790.847839 725.793518,801.351135 714.292847,812.160339 
	C710.651489,809.077148 707.005615,806.276123 703.689026,803.128235 
	C693.919067,793.855347 684.253906,784.471436 674.595093,775.082275 
	C660.873596,761.744080 647.244446,748.310669 633.484131,735.012817 
	C616.987061,719.070251 600.418213,703.201660 583.833679,687.349976 
	C571.344910,675.413086 558.782410,663.553406 546.086304,651.373535 
z"/>
<path fill="#812828" opacity="1.000000" stroke="none" 
	d="
M920.940186,718.122192 
	C925.380005,714.161499 929.958008,710.343872 934.234070,706.213684 
	C948.091309,692.829468 961.802734,679.294250 975.654114,665.903870 
	C978.733826,662.926575 982.156189,660.303711 985.712585,657.268677 
	C987.733154,658.948730 989.988708,660.586182 991.968140,662.508118 
	C1006.148193,676.276672 1020.219604,690.157349 1034.427612,703.896729 
	C1051.005127,719.927612 1067.712524,735.824097 1084.310791,751.833679 
	C1091.434448,758.704651 1098.424927,765.713684 1104.794678,772.833557 
	C1024.720825,773.018555 945.328186,773.029968 865.935547,773.041504 
	C869.502075,768.992981 872.944336,764.825256 876.677612,760.936829 
	C879.288879,758.216980 882.393555,755.978088 885.112732,753.353333 
	C896.054382,742.791382 906.931702,732.162842 918.315796,721.265015 
	C919.512573,720.021423 920.226379,719.071777 920.940186,718.122192 
z"/>
<path fill="#661116" opacity="1.000000" stroke="none" 
	d="
M866.090271,773.336548 
	C945.328186,773.029968 1024.720825,773.018555 1104.587646,773.022949 
	C1096.173706,781.726990 1087.291870,790.421875 1078.395630,799.101868 
	C1066.397095,810.808716 1054.387329,822.504028 1042.203369,834.467896 
	C1041.179810,835.233337 1040.335327,835.735229 1039.513916,836.626526 
	C1021.771301,853.946411 1004.005615,870.876892 985.861084,888.168396 
	C983.488831,886.192993 980.969543,884.356384 978.753479,882.207275 
	C964.683350,868.562012 950.731995,854.794189 936.641418,841.170288 
	C920.059021,825.137207 903.378174,809.205994 886.733582,793.237244 
	C879.912598,786.693176 873.075073,780.166382 866.090271,773.336548 
z"/>
<path fill="#FEFEFE" opacity="1.000000" stroke="none" 
	d="
M920.627808,717.987061 
	C920.226379,719.071777 919.512573,720.021423 918.460327,720.955627 
	C903.245972,706.619385 888.360596,692.308228 873.501953,677.969421 
	C870.513977,675.085938 867.627686,672.097168 864.381104,669.025024 
	C864.797119,667.957336 865.526733,667.021545 866.574463,666.076416 
	C881.060608,679.682495 895.243591,693.282410 909.386169,706.924194 
	C913.093506,710.500183 916.675720,714.205872 920.627808,717.987061 
z"/>
<path fill="#822929" opacity="1.000000" stroke="none" 
	d="
M482.978943,171.246002 
	C484.082336,170.230164 485.041443,169.522705 485.968903,168.469360 
	C487.434967,167.106110 489.117798,166.280563 490.401672,165.041626 
	C502.730621,153.144516 514.985901,141.171234 527.274963,129.232758 
	C538.368713,118.455452 549.447144,107.662163 560.588135,96.933830 
	C576.988586,81.140884 593.429443,65.389778 609.884399,49.653561 
	C611.261230,48.336826 612.875305,47.268009 614.260193,46.177681 
	C642.113770,72.923775 669.563843,99.282402 696.921753,125.552574 
	C732.377747,90.094627 767.659546,54.810875 803.233215,19.235243 
	C851.531921,67.401016 899.148682,114.886696 946.594238,162.814102 
	C941.541016,167.858597 936.658997,172.461365 931.470337,176.947937 
	C888.741211,134.367828 846.318726,91.903946 803.323914,48.867119 
	C801.700562,50.841862 800.646484,52.366798 799.357544,53.656975 
	C759.350403,93.703102 719.321777,133.727722 679.286926,173.746140 
	C677.998840,175.033722 676.610291,176.220871 675.100952,177.129761 
	C670.149780,172.304993 665.366150,167.805328 660.338074,163.075638 
	C653.039001,170.411636 645.843018,177.808823 638.418945,184.969513 
	C636.896729,186.437775 634.529175,187.866180 632.536438,187.886948 
	C589.769409,188.332901 547.000549,188.657135 504.231354,188.806732 
	C491.779999,188.850296 479.326477,188.282501 466.873962,187.994965 
	C472.194214,182.514771 477.514435,177.034592 482.978943,171.246002 
z"/>
<path fill="#671216" opacity="1.000000" stroke="none" 
	d="
M466.669128,188.183960 
	C479.326477,188.282501 491.779999,188.850296 504.231354,188.806732 
	C547.000549,188.657135 589.769409,188.332901 632.536438,187.886948 
	C634.529175,187.866180 636.896729,186.437775 638.418945,184.969513 
	C645.843018,177.808823 653.039001,170.411636 660.338074,163.075638 
	C665.366150,167.805328 670.149780,172.304993 674.949585,177.414642 
	C632.392273,220.394333 589.818787,262.764069 547.012268,305.365723 
	C548.820496,307.268524 550.030701,308.599945 551.301514,309.870911 
	C591.437073,350.013733 631.580078,390.149048 671.710999,430.296478 
	C672.873108,431.459137 673.916382,432.740601 675.015137,433.966644 
	C670.561768,438.648041 666.108459,443.329407 661.240173,448.446930 
	C659.519592,446.847015 658.068542,445.580414 656.709412,444.221893 
	C620.585022,408.113281 584.474304,371.990967 548.337341,335.894928 
	C546.949402,334.508606 545.323792,333.360229 543.477661,332.073944 
	C534.371033,323.916687 525.595764,315.786469 516.717407,307.560730 
	C529.529846,294.834717 540.922791,283.518677 552.750977,271.770355 
	C542.687683,262.227020 533.344116,253.514206 524.167053,244.629440 
	C509.597504,230.524002 495.142578,216.300232 480.631866,202.133987 
	C475.921051,197.534988 471.187469,192.959320 466.669128,188.183960 
z"/>
<path fill="#671216" opacity="1.000000" stroke="none" 
	d="
M931.776917,177.064117 
	C936.658997,172.461365 941.541016,167.858597 946.730591,163.119278 
	C947.926147,163.723068 948.878662,164.398911 949.693054,165.212997 
	C995.752930,211.252350 1041.801514,257.303070 1087.848511,303.355286 
	C1088.432251,303.939056 1088.981201,304.557648 1090.298584,305.961823 
	C1052.263672,343.786438 1014.289917,381.550293 976.211609,419.618713 
	C967.564453,428.280487 958.894958,436.513794 950.546814,445.060913 
	C947.554688,448.124390 945.537231,448.575928 942.550598,445.167633 
	C939.388733,441.559418 935.696716,438.415680 932.044556,434.639954 
	C974.686096,391.568115 1017.519409,348.925354 1060.889404,305.748230 
	C1058.840210,304.066986 1057.458740,303.115601 1056.291626,301.949524 
	C1015.989990,261.683411 975.706787,221.398895 935.432861,181.105072 
	C934.150330,179.821930 932.992737,178.413925 931.776917,177.064117 
z"/>
<path fill="#FFFFFF" opacity="1.000000" stroke="none" 
	d="
M931.470337,176.947922 
	C932.992737,178.413925 934.150330,179.821930 935.432861,181.105072 
	C975.706787,221.398895 1015.989990,261.683411 1056.291626,301.949524 
	C1057.458740,303.115601 1058.840210,304.066986 1060.889404,305.748230 
	C1017.519409,348.925354 974.686096,391.568115 931.701050,434.521118 
	C930.195557,436.043152 928.780273,437.193329 927.497070,438.475739 
	C887.564148,478.387238 847.638550,518.306030 807.747314,558.259155 
	C806.464722,559.543823 805.554871,561.200562 804.327148,562.880981 
	C760.861206,519.426575 718.247864,476.824585 675.324829,434.094635 
	C673.916382,432.740601 672.873108,431.459137 671.710999,430.296478 
	C631.580078,390.149048 591.437073,350.013733 551.301514,309.870911 
	C550.030701,308.599945 548.820496,307.268524 547.012268,305.365723 
	C589.818787,262.764069 632.392273,220.394333 675.117188,177.739716 
	C676.610291,176.220871 677.998840,175.033722 679.286926,173.746140 
	C719.321777,133.727722 759.350403,93.703102 799.357544,53.656975 
	C800.646484,52.366798 801.700562,50.841862 803.323914,48.867119 
	C846.318726,91.903946 888.741211,134.367828 931.470337,176.947922 
z"/>
</svg>